<?xml version="1.0" standalone="no"?>
<svg viewBox="0 0 200 200" xmlns="http://www.w3.org/2000/svg">
  <path fill="#747264" d="M32.6,-52.5C45.2,-49.3,60.1,-46.3,65.2,-37.6C70.2,-28.9,65.2,-14.5,61,-2.4C56.8,9.6,53.4,19.3,49.2,29.2C44.9,39.2,39.7,49.5,31.4,60C23,70.5,11.5,81.1,-2.4,85.2C-16.2,89.3,-32.4,86.8,-45.5,79C-58.6,71.3,-68.5,58.3,-70.2,44.2C-71.9,30.2,-65.4,15.1,-62.8,1.5C-60.2,-12.1,-61.6,-24.3,-57.4,-34C-53.3,-43.7,-43.5,-51.1,-33,-55.4C-22.5,-59.8,-11.2,-61.3,-0.6,-60.2C10.1,-59.2,20.1,-55.7,32.6,-52.5Z" transform="translate(100 100)" />
</svg>
